<!-- Generator: Adobe Illustrator 19.0.0, SVG Export Plug-In  -->
<svg version="1.1"
	 xmlns="http://www.w3.org/2000/svg" xmlns:xlink="http://www.w3.org/1999/xlink" xmlns:a="http://ns.adobe.com/AdobeSVGViewerExtensions/3.0/"
	 x="0px" y="0px" width="335.8px" height="97.1px" viewBox="0 0 335.8 97.1"
	 style="overflow:scroll;enable-background:new 0 0 335.8 97.1;" xml:space="preserve">
<style type="text/css">
	.st0{fill:#323333;}
	.st1{fill:#65AA41;}
	.st2{fill:#06629E;}
</style>
<defs>
</defs>
<g id="XMLID_17_">
	<g id="XMLID_32_">
		<g id="XMLID_51_">
			<path id="XMLID_65_" class="st0" d="M189.5,29.1c-2.3,2.6-6.5,5.7-14.7,9.6v-7.5c0,0,10.3-11.4,10.8-12c0.5-0.6,1.6-1.6,1-3
				c-0.6-1.4-2.1-1.3-2.1-1.3s-14.6,0-18.7,0c-4.1,0-4.7,2.8-4.7,2.8h17.9c0.9,0.4,0.4,1,0.4,1s-7.2,7.9-8.5,9.3c-1.3,1.4-1,2-1,2
				v10.9c-0.6,0.3-1.3,0.5-1.9,0.8c-10,4.1-13.6,14.9-13.6,14.9c0.7-0.8,2.3-4.5,15.6-10.2v18.6c0,0,0.2,1.3-3.5,1.3
				s-4.1,1.8-4.1,1.8h8.2c4.4-0.8,4.4-4.7,4.4-4.7V44.2C188.2,37.4,189.5,29.1,189.5,29.1z"/>
			<path id="XMLID_64_" class="st0" d="M197.8,13.2c0,0,0,49.6,0,50.4c0,0.8,0.8,1.7,1.7,1.7s9.2,0,10.6,0c1.4,0,3,1.7,3.3,2.8
				c0,0-14.3,0-16.1,0s-5.1-1.4-5.1-5.1s0-44.2,0-45.7S194.2,13.2,197.8,13.2z"/>
			<g id="XMLID_56_">
				<path id="XMLID_63_" class="st0" d="M226.5,24.1c5.3-1.4,8.6-4.6,5.7-9.6c0,0,1.1,2.9-4.1,4.2c-9.6,2.3-11,8.5-12,13
					C216.1,31.7,221.9,25.3,226.5,24.1z"/>
				<path id="XMLID_62_" class="st0" d="M246.7,27.5V13.2c-4.5,0-5.1,3.4-5.1,3.4v7.5C242.7,27.5,246.7,27.5,246.7,27.5z"/>
				<path id="XMLID_57_" class="st0" d="M272.2,51c0,0-0.1-2.8-3-2.8c-3,0-17.5,0-17.5,0v-5.3h20.5c0,0-0.6-2.8-3.2-2.8
					c-2.6,0-17.3,0-17.3,0v-4.7c0,0-5.1-0.3-5.1,2.9c0,1,0,1.9,0,1.9h-20.2v-2.6c9.8-2.8,21.1-3.1,31.3-6.3c4.1-1.3,5.7-3.6,6.2-5.8
					c3.6,2,6.9,5.3,6.9,5.3c-1-4.5-2.1-9.7-11.6-12c-5.2-1.3-4.1-4.2-4.1-4.2c-2.8,4.7,0.1,7.9,5,9.4c-6.6,4.2-18.7,4.6-31.1,7.9
					c-8.5,2.2-14.2,11.2-14.2,11.2c2.1-1.5,4.3-2.7,6.6-3.6c0,3.4,0,21.3,0,22.4c0,1.2,0.9,4.3,5.1,4.3c4.3,0,45.7,0,45.7,0
					s0-2.8-2.8-2.8c-2.8,0-17.7,0-17.7,0v-4.5h20.5c0,0-0.3-2.8-2.7-2.8s-17.8,0-17.8,0V51H272.2z M246.8,63.1h-20.3v-4.5h20.3V63.1
					z M246.8,55.8h-20.3V51h20.3V55.8z M246.8,48.1h-20.3v-5.2h20.3V48.1z"/>
			</g>
			<g id="XMLID_52_">
				<path id="XMLID_55_" class="st0" d="M330.6,13.7c0,0-39-0.7-43.9,0c-4.8,0.7-5.1,5.1-5.1,5.1s0,40.9,0,45.4c0,4.4,5,3.9,5,3.9
					V56.8c0,0,0-37.3,0-38.1c0-0.8-0.1-2.2,1.7-2.2c1.8,0,36.9,0,39.6,0c2.6,0,2.7,0.9,2.7,2.4c0,1.5,0,44.7,0,44.7
					c0,2.9-4.2,2.4-6.2,2.4c-2,0-2.7,2-2.7,2s4.6,0,8.8,0c4.2,0,5.1-3.2,5.1-5.1s0-39.3,0-44.1S330.6,13.7,330.6,13.7z"/>
				<path id="XMLID_54_" class="st0" d="M301.3,37.4c4.6-12.9,7.4-14.8,7.4-14.8s-5.8,0-10.1,8.7c-1.6-3.5-2.8-6.3-3.3-7.3
					c-1.5-3.3-6.4-2.2-6.4-2.2l7.1,15.8c-4.6,12.9-7.4,18.4-8.8,19.3c0,0,6.9-1.7,11.6-13l6.3,13.9c4.4-2,2.4-6.6,2.4-6.6
					S304.4,44.3,301.3,37.4z"/>
				<path id="XMLID_53_" class="st0" d="M325.4,58c4.4-2,2.4-6.6,2.4-6.6s-3-6.6-6-13.4c4.7-13.4,7.6-15.4,7.6-15.4s-6,0-10.4,9.2
					c-1.7-3.7-3-6.7-3.5-7.8c-1.5-3.3-6.4-2.2-6.4-2.2l7.4,16.4c-4.5,12.5-7.2,17.9-8.6,18.8c0,0,6.7-1.6,11.4-12.4L325.4,58z"/>
			</g>
		</g>
		<path id="XMLID_50_" class="st0" d="M268.1,87.9c-0.4,0-0.8,0.1-1.1,0.4c-0.3,0.3-0.4,0.6-0.4,1.1c0,0.4,0.1,0.8,0.4,1.1
			c0.3,0.3,0.6,0.4,1.1,0.4s0.8-0.1,1.1-0.4c0.3-0.3,0.4-0.7,0.4-1.1c0-0.4-0.1-0.8-0.4-1.1C268.9,88.1,268.5,87.9,268.1,87.9z"/>
		<g id="XMLID_33_">
			<path id="XMLID_49_" class="st0" d="M172.9,88.2l-7.3-4.7l0,0l7.1-4.5c0,0,0.9-0.7,0.3-2l-7.4,4.8v-9.6c-1.7,0.1-1.7,1.5-1.7,1.5
				s0,13.5,0,15c0,1.6,1.7,1.8,1.7,1.8v-5.5l7.7,5C173.9,89,172.9,88.2,172.9,88.2z"/>
			<path id="XMLID_46_" class="st0" d="M302.3,77c-2.1,0-3.8,0.7-5.1,2.2c-1.2,1.4-1.8,2.9-1.8,4.8c0,1.9,0.6,3.5,1.9,4.9
				c1.3,1.4,3,2.1,5,2.1c2,0,3.7-0.7,5-2.1c1.3-1.4,1.9-3,1.9-4.9c0-1.8-0.6-3.4-1.8-4.8C306.1,77.8,304.4,77,302.3,77z M306.8,86.8
				c-0.5,0.8-1.1,1.5-1.9,1.9c-0.8,0.5-1.7,0.7-2.6,0.7c-0.9,0-1.8-0.2-2.6-0.7c-0.8-0.5-1.4-1.1-1.9-1.9c-0.5-0.8-0.7-1.7-0.7-2.7
				c0-1.5,0.5-2.8,1.5-3.8c1-1.1,2.2-1.6,3.7-1.6c1.4,0,2.6,0.5,3.7,1.6c1,1.1,1.5,2.3,1.5,3.8C307.5,85.1,307.3,86,306.8,86.8z"/>
			<path id="XMLID_43_" class="st0" d="M191.4,78.6c0,0,0,0.5,0,1.2c-0.7-0.9-1.4-1.6-2.3-2.1c-0.9-0.5-1.9-0.7-3-0.7
				c-1.9,0-3.5,0.7-4.8,2c-1.3,1.4-2,3-2,4.9c0,2,0.7,3.6,2,5c1.3,1.4,2.9,2,4.8,2c1.1,0,2-0.2,2.9-0.7c0.9-0.4,1.7-1.1,2.4-2
				c0,2.5,0,4.7,0,5.3c0,1.6,1.7,1.8,1.7,1.8V77.1C191.4,77.2,191.4,78.6,191.4,78.6z M191.4,85.2c-0.1,0.6-0.3,1.1-0.6,1.6
				c-0.5,0.8-1.1,1.4-1.9,1.9c-0.8,0.5-1.7,0.7-2.7,0.7c-0.9,0-1.8-0.2-2.6-0.7c-0.8-0.5-1.5-1.1-1.9-2c-0.5-0.9-0.7-1.7-0.7-2.7
				c0-0.9,0.2-1.8,0.7-2.7c0.5-0.8,1.1-1.5,1.9-2c0.8-0.5,1.7-0.7,2.6-0.7c1.5,0,2.7,0.5,3.7,1.5c0.7,0.8,1.2,1.7,1.4,2.7
				C191.4,83.7,191.4,84.4,191.4,85.2z"/>
			<path id="XMLID_40_" class="st0" d="M256.9,73.7c0,0,0,2.9,0,6.1c-0.7-0.9-1.4-1.6-2.3-2.1c-0.9-0.5-1.9-0.7-3-0.7
				c-1.9,0-3.5,0.7-4.8,2c-1.3,1.4-2,3-2,4.9c0,2,0.7,3.6,2,5c1.3,1.4,2.9,2,4.8,2c1.1,0,2-0.2,2.9-0.7c0.9-0.4,1.7-1.1,2.4-2
				c0,0.1,0,0.3,0,0.4c0,1.6,1.7,1.8,1.7,1.8V72.2C256.9,72.3,256.9,73.7,256.9,73.7z M256.3,86.8c-0.5,0.8-1.1,1.4-1.9,1.9
				c-0.8,0.5-1.7,0.7-2.7,0.7c-0.9,0-1.8-0.2-2.6-0.7c-0.8-0.5-1.5-1.1-1.9-2c-0.5-0.9-0.7-1.7-0.7-2.7c0-0.9,0.2-1.8,0.7-2.7
				c0.5-0.8,1.1-1.5,1.9-2c0.8-0.5,1.7-0.7,2.6-0.7c1.5,0,2.7,0.5,3.7,1.5c0.7,0.8,1.2,1.6,1.4,2.7c0,0,0,0,0,0l0,0v2.3l0,0
				c0,0,0,0,0,0C256.8,85.8,256.6,86.3,256.3,86.8z"/>
			<path id="XMLID_37_" class="st0" d="M236.3,78.6c0,0,0,0.5,0,1.2c-0.7-0.9-1.4-1.6-2.3-2.1c-0.9-0.5-1.9-0.7-3-0.7
				c-1.9,0-3.5,0.7-4.8,2c-1.3,1.4-2,3-2,4.9c0,2,0.7,3.6,2,5c1.3,1.4,2.9,2,4.8,2c1.1,0,2-0.2,2.9-0.7c0.9-0.4,1.7-1.1,2.4-1.9
				c0,0.2,0,0.3,0,0.4c0,1.6,1.7,1.8,1.7,1.8V77.1C236.2,77.2,236.3,78.6,236.3,78.6z M235.7,86.8c-0.5,0.8-1.1,1.4-1.9,1.9
				c-0.8,0.5-1.7,0.7-2.7,0.7c-0.9,0-1.8-0.2-2.6-0.7c-0.8-0.5-1.5-1.1-1.9-2c-0.5-0.9-0.7-1.7-0.7-2.7c0-0.9,0.2-1.8,0.7-2.7
				c0.5-0.8,1.1-1.5,1.9-2c0.8-0.5,1.7-0.7,2.6-0.7c1.5,0,2.7,0.5,3.7,1.5c0.7,0.7,1.2,1.6,1.4,2.6c0,0,0,0.1,0,0.1l0,0v2.3l0,0
				c0,0,0,0,0,0.1C236.2,85.8,236,86.3,235.7,86.8z"/>
			<path id="XMLID_36_" class="st0" d="M217,78.3c-0.5,1.2-3.3,7.6-3.4,7.9c-0.1,0.3-0.4,0.5-0.6,0c-0.2-0.5-3.7-8.3-3.8-8.5
				c-0.1-0.2-0.6-0.2-0.7,0s-3.9,8.8-3.9,8.8s-0.3,0.3-0.4,0c0,0-3.3-7.7-3.4-8.2c-0.2-0.5-1.1-1-2.2-1c0,0,5,12.3,5.2,12.9
				c0.2,0.5,0.7,0.6,1,0c0.3-0.6,3.6-8,3.7-8.3c0.2-0.3,0.5-0.3,0.7,0c0.2,0.4,3.6,8.1,3.7,8.3c0.1,0.2,0.6,0.7,0.9,0
				c0.4-0.7,5.6-12.9,5.6-12.9S217.6,77.1,217,78.3z"/>
			<path id="XMLID_35_" class="st0" d="M280.2,79.4c0.9-0.5,1.8-0.7,2.9-0.7c2,0,3.5,0.8,4.8,2.3c0,0,0.7-2-1.5-3.3
				c-1-0.4-2.1-0.7-3.3-0.7c-2.1,0-3.8,0.7-5.2,2c-1.4,1.3-2.1,3-2.1,4.9c0,0,0,0,0,0.1c0,0,0,0,0,0.1c0,1.9,0.7,3.5,2.1,4.9
				c1.4,1.3,3.1,2,5.2,2c1.2,0,2.3-0.2,3.3-0.7c2.2-1.2,1.5-3.3,1.5-3.3c-1.2,1.6-2.8,2.3-4.8,2.3c-1.1,0-2-0.2-2.9-0.7
				c-0.9-0.5-1.5-1.1-2-2c-0.5-0.8-0.7-1.7-0.7-2.7c0-0.9,0.3-1.8,0.7-2.7C278.7,80.5,279.4,79.9,280.2,79.4z"/>
			<path id="XMLID_34_" class="st0" d="M335.3,79.7c-0.3-0.8-0.9-1.5-1.6-1.9c-0.7-0.5-1.5-0.7-2.4-0.7c-1,0-1.9,0.3-2.8,0.8
				c-0.9,0.5-1.6,1.3-2.1,2.4c-0.3-0.8-0.6-1.4-1-1.8c-0.4-0.4-0.8-0.8-1.4-1c-0.6-0.3-1.2-0.4-1.8-0.4c-1,0-1.9,0.3-2.7,0.8
				c-0.6,0.4-1.2,1-1.8,1.9v-3c-1.7,0.1-1.7,1.5-1.7,1.5s0,9,0,10.6c0,1.6,1.7,1.8,1.7,1.8V85c0-1.7,0.2-2.9,0.5-3.7
				c0.3-0.8,0.8-1.4,1.5-1.9c0.7-0.5,1.4-0.7,2.2-0.7c0.7,0,1.3,0.2,1.8,0.5c0.5,0.3,0.8,0.8,1,1.4c0.2,0.6,0.3,1.7,0.3,3.3v4.8
				c0,0.4,0.1,1.7,1.7,2v-5.2c0-1.9,0.2-3.3,0.5-4.1c0.3-0.8,0.8-1.5,1.5-2c0.7-0.5,1.4-0.7,2.3-0.7c0.7,0,1.3,0.2,1.8,0.5
				c0.5,0.3,0.8,0.8,1,1.3c0.2,0.5,0.3,1.5,0.3,2.9v5.2l0,0c0,0-0.1,1.8,1.7,2.1v-7.3C335.8,81.8,335.6,80.5,335.3,79.7z"/>
		</g>
	</g>
	<g id="XMLID_18_">
		<path id="XMLID_31_" class="st1" d="M5.8,77.7c0,0,6.3,1.3,60.6-3.6c0.1-0.2,0.1-0.4,0.2-0.5C16.4,69,7.1,69.7,5.9,69.8
			c0,0-0.1,0-0.1,0c-3.2,0-5.8,1.8-5.8,3.9C0,75.9,2.6,77.7,5.8,77.7z"/>
		<path id="XMLID_30_" class="st1" d="M7.5,56.5c0,0,5.7,3.2,59.6,15.5c0-0.1,0.1-0.3,0.1-0.4c-46.8-20-56-22.3-57.1-22.5
			c0,0-0.1,0-0.1,0c-3-1-6.1-0.1-6.7,1.9C2.5,53,4.4,55.5,7.5,56.5z"/>
		<path id="XMLID_29_" class="st1" d="M15.9,36.6c0,0,4.4,4.8,51.8,33.1c0-0.2,0.1-0.3,0.1-0.5C29.6,35.9,21.6,30.9,20.6,30.4
			c0,0-0.1-0.1-0.1-0.1c-2.6-1.9-5.7-2-7-0.2C12.2,31.8,13.3,34.7,15.9,36.6z"/>
		<path id="XMLID_28_" class="st1" d="M68.4,67.1c0.1-0.3,0.2-0.6,0.2-0.9C43.4,24,37.4,17,36.6,16.2c0,0-0.1-0.1-0.1-0.1
			c-1.9-2.6-4.8-3.7-6.6-2.4c-1.8,1.3-1.6,4.4,0.2,7C30.2,20.7,32.9,26.5,68.4,67.1z"/>
		<path id="XMLID_27_" class="st1" d="M69.4,63.2c0.2-0.8,0.4-1.6,0.7-2.5C59.9,16.8,56.7,8.8,56.2,7.8c0,0,0-0.1,0-0.1
			c-1-3-3.5-5-5.5-4.3c-2.1,0.7-2.9,3.7-1.9,6.7C48.7,10.1,49.4,16.2,69.4,63.2z"/>
		<path id="XMLID_26_" class="st1" d="M75,52.2C78.2,14.6,77.6,7,77.4,5.9c0,0,0-0.1,0-0.1c0-3.2-1.8-5.8-3.9-5.8
			c-2.2,0-3.9,2.6-3.9,5.8c0,0-1,5.2,2.4,46.4H75z"/>
		<g id="XMLID_24_">
			<path id="XMLID_25_" class="st1" d="M78.6,57.6l0.7,0.5c17.9-42.3,18.5-48,18.5-48c1-3,0.1-6.1-1.9-6.7c-2.1-0.7-4.5,1.3-5.5,4.3
				c0,0,0,0.1,0,0.1c-0.5,1-3.6,8.5-13,49C77.8,57.1,78.2,57.4,78.6,57.6z"/>
		</g>
		<path id="XMLID_23_" class="st1" d="M82.4,60.1l-1.1,0.5c-1,1.7-2.1,3.4-3.2,5.3c0.1,0.3,0.2,0.7,0.3,1
			c35.3-40.4,37.9-46.2,37.9-46.2c1.9-2.6,2-5.7,0.2-7c-1.8-1.3-4.7-0.2-6.6,2.4c0,0-0.1,0.1-0.1,0.1c-0.7,0.8-6.1,7.1-28.1,43.6
			L82.4,60.1z"/>
		<path id="XMLID_22_" class="st1" d="M79.2,69.5c47.1-28.2,51.5-32.9,51.5-32.9c2.6-1.9,3.7-4.8,2.4-6.6c-1.3-1.8-4.4-1.6-7,0.2
			c0,0-0.1,0.1-0.1,0.1c-1,0.6-9,5.5-46.9,38.6C79.1,69.2,79.1,69.3,79.2,69.5z"/>
		<path id="XMLID_21_" class="st1" d="M79.9,71.9c53.6-12.2,59.3-15.4,59.3-15.4c3-1,5-3.5,4.3-5.5c-0.7-2.1-3.7-2.9-6.7-1.9
			c0,0-0.1,0-0.1,0c-1.1,0.2-10.3,2.4-56.8,22.3C79.8,71.6,79.8,71.7,79.9,71.9z"/>
		<path id="XMLID_20_" class="st1" d="M80.5,74.1c54,4.8,60.3,3.6,60.3,3.6c3.2,0,5.8-1.8,5.8-3.9c0-2.2-2.6-3.9-5.8-3.9
			c0,0-0.1,0-0.1,0c-1.2-0.1-10.4-0.8-60.3,3.6C80.4,73.7,80.4,73.9,80.5,74.1z"/>
		<path id="XMLID_19_" class="st2" d="M79,75.6c-1.7-5.6-2.4-8.1-4-14.4c1.1-0.5,2.3-1.1,3.4-1.6c-1.4-0.9-2.9-1.8-4.2-2.8
			c-0.1-0.8,0.6-2.4,0.6-2.4h-2.7c-0.5,0.8,1,2.6,1,2.6l0,0c-2.2,7.4-2.9,11.5-5.3,18.7C40.5,76.8,16.7,86.2,2.2,97.1
			C20.6,89.2,45.8,81,73.6,81c27.8,0,53,8.3,71.4,16.1C130.5,86.1,106.5,76.7,79,75.6z"/>
	</g>
</g>
</svg>